<svg width="400" height="400" viewBox="0 0 400 400" fill="none" xmlns="http://www.w3.org/2000/svg">
<rect x="-0.00585938" width="400" height="400" rx="200" fill="white"/>
<path fill-rule="evenodd" clip-rule="evenodd" d="M341.356 263.434L266.775 243.468C259.939 241.616 254.092 237.17 250.55 231.036L206.032 153.931C202.49 147.798 201.544 140.511 203.355 133.677L223.329 59.0838C224.893 53.197 232.841 52.1266 235.889 57.4371L349.057 253.39C352.104 258.658 347.244 265.039 341.356 263.434ZM176.66 59.0941L196.633 133.647C198.486 140.481 197.498 147.767 193.957 153.9L149.438 231.005C145.897 237.139 140.049 241.626 133.213 243.438L58.6328 263.444C52.7437 265.008 47.8843 258.669 50.9317 253.4L164.099 57.4474C167.147 52.1782 175.095 53.2073 176.66 59.0941ZM136.555 249.722L81.9485 304.309C77.6242 308.632 80.7128 316 86.8082 316H313.184C319.321 316 322.368 308.632 318.044 304.309L263.437 249.722C258.413 244.7 251.618 241.9 244.535 241.9H155.458C148.375 241.9 141.58 244.7 136.555 249.722Z" fill="url(#paint0_linear_1388_94)"/>
<defs>
<linearGradient id="paint0_linear_1388_94" x1="49.9941" y1="54" x2="321.818" y2="342.544" gradientUnits="userSpaceOnUse">
<stop stop-color="#5DB6F9"/>
<stop offset="1" stop-color="#4F93F7"/>
</linearGradient>
</defs>
</svg>
